<?xml version="1.0" encoding="UTF-8"?><svg xmlns="http://www.w3.org/2000/svg" xmlns:xlink="http://www.w3.org/1999/xlink" width="375" zoomAndPan="magnify" viewBox="0 0 375 374.999991" height="374.999991" preserveAspectRatio="xMidYMid meet" version="1.0"><defs><clipPath id="clip-0"><path d="M 112.738281 136.578125 L 261.96875 136.578125 L 261.96875 250.726562 L 112.738281 250.726562 Z M 112.738281 136.578125 " clip-rule="nonzero"/></clipPath><clipPath id="clip-1"><path d="M 117.386719 45.148438 L 261 45.148438 L 261 317.132812 L 117.386719 317.132812 Z M 117.386719 45.148438 " clip-rule="nonzero"/></clipPath></defs><g clip-path="url(#clip-0)"><path fill="rgb(89.7995%, 89.7995%, 89.7995%)" d="M 235.21875 250.621094 C 217.492188 250.617188 199.789062 247.878906 182.035156 247.328125 C 161.644531 246.699219 141.054688 248.941406 120.941406 245.523438 C 119.25 245.234375 117.523438 244.890625 116.078125 243.964844 C 112.910156 241.933594 111.972656 237.398438 113.367188 233.898438 C 114.761719 230.394531 118.019531 227.910156 121.539062 226.582031 C 125.054688 225.257812 128.859375 224.9375 132.605469 224.644531 C 128.328125 224.308594 124.339844 221.476562 122.601562 217.542969 C 119.382812 210.253906 124.285156 201.519531 131.078125 197.382812 C 137.871094 193.242188 146.058594 192.347656 153.839844 190.71875 C 149.585938 190.070312 145.359375 188.535156 142.144531 185.667969 C 138.925781 182.796875 136.851562 178.460938 137.355469 174.175781 C 137.9375 169.261719 141.757812 165.214844 146.179688 163.019531 C 150.605469 160.824219 155.601562 160.160156 160.496094 159.527344 C 156.410156 157.710938 155.625 151.726562 158.035156 147.953125 C 160.445312 144.179688 164.941406 142.296875 169.308594 141.351562 C 171.554688 140.867188 173.832031 140.570312 176.09375 140.175781 C 178.269531 139.789062 180.472656 138.753906 182.59375 138.449219 C 184.777344 138.136719 187.257812 138.796875 189.535156 138.5625 C 192.125 138.296875 194.679688 137.753906 197.261719 137.394531 C 206.746094 136.066406 216.574219 137.25 225.476562 140.796875 C 227.65625 141.667969 229.902344 142.777344 231.121094 144.789062 C 232.601562 147.222656 232.160156 150.472656 230.6875 152.914062 C 229.214844 155.355469 226.878906 157.136719 224.503906 158.707031 C 219.605469 161.953125 214.304688 164.585938 208.757812 166.527344 C 218.730469 168.066406 228.699219 169.605469 238.667969 171.144531 C 241.53125 171.589844 244.457031 172.050781 247 173.429688 C 249.546875 174.8125 251.683594 177.316406 251.8125 180.214844 C 251.96875 183.660156 249.375 186.59375 246.675781 188.730469 C 240.6875 193.46875 233.476562 196.332031 226.378906 199.128906 C 237.0625 202.042969 248.011719 205.082031 256.957031 211.625 C 259.34375 213.371094 261.726562 215.664062 261.953125 218.613281 C 262.144531 221.207031 260.605469 223.613281 258.847656 225.519531 C 255.238281 229.433594 250.414062 232.199219 245.222656 233.335938 C 247.609375 234.707031 249.992188 236.074219 252.378906 237.441406 C 254.269531 238.527344 256.347656 239.867188 256.753906 242.011719 C 257.066406 243.660156 256.25 245.347656 255.089844 246.5625 C 252.226562 249.574219 247.710938 250.171875 243.566406 250.398438 C 240.785156 250.550781 238 250.621094 235.21875 250.621094 " fill-opacity="1" fill-rule="nonzero"/></g><path fill="rgb(99.21875%, 69.40918%, 20.779419%)" d="M 201.132812 313.597656 C 200.324219 313.632812 199.515625 313.664062 198.710938 313.6875 C 183.765625 314.175781 168.324219 313.972656 154.589844 308.046875 C 151.796875 306.839844 149.027344 305.351562 147.0625 303.023438 C 145.242188 300.863281 144.242188 298.140625 143.273438 295.484375 C 139.625 285.445312 135.980469 275.402344 132.6875 265.242188 C 131.878906 262.742188 131.089844 260.035156 131.902344 257.539062 C 134.054688 250.957031 144.984375 252.84375 150.089844 252.949219 C 158.597656 253.125 167.097656 253.5 175.601562 253.824219 C 192.402344 254.46875 209.597656 254.9375 226.484375 253.253906 C 227.328125 253.171875 228.171875 253.082031 229.015625 252.984375 C 234.136719 252.410156 239.285156 251.628906 244.421875 252.070312 C 245.664062 252.179688 247.007812 252.410156 247.867188 253.316406 C 248.894531 254.414062 248.890625 256.097656 248.773438 257.597656 C 247.867188 269.496094 244.101562 281.074219 238.65625 291.6875 C 235.796875 297.261719 232.355469 302.722656 227.367188 306.496094 C 220.011719 312.050781 210.414062 313.195312 201.132812 313.597656 " fill-opacity="1" fill-rule="nonzero"/><path fill="rgb(87.059021%, 58.81958%, 6.669617%)" d="M 197.148438 136.566406 C 197.113281 136.585938 197.082031 136.601562 197.050781 136.617188 C 193.300781 138.398438 189 138.914062 184.898438 138.289062 C 178.511719 137.316406 172.582031 133.496094 169.148438 128.007812 C 165.714844 122.523438 164.871094 115.449219 167.035156 109.347656 C 168.460938 105.332031 171.175781 101.808594 174.636719 99.347656 C 175.503906 98.726562 176.417969 98.175781 177.375 97.703125 C 178.285156 97.25 179.34375 96.699219 180.351562 96.519531 C 181.457031 96.324219 182.527344 95.9375 183.636719 95.71875 C 184.832031 95.484375 186.042969 95.355469 187.261719 95.332031 C 190.789062 95.261719 194.339844 96.070312 197.472656 97.707031 C 202.613281 100.398438 206.546875 105.28125 208.160156 110.863281 C 209.773438 116.449219 209.054688 122.660156 206.265625 127.753906 C 204.203125 131.527344 201.015625 134.703125 197.148438 136.566406 " fill-opacity="1" fill-rule="nonzero"/><path fill="rgb(26.669312%, 26.669312%, 26.669312%)" d="M 223.300781 44.816406 C 220.476562 51.175781 213.847656 54.894531 207.375 57.402344 C 202.941406 59.125 198.335938 60.5 193.605469 60.96875 C 188.875 61.4375 183.992188 60.96875 179.609375 59.117188 C 176.582031 57.835938 173.839844 55.921875 170.765625 54.761719 C 165.882812 52.917969 160.265625 53.121094 155.527344 55.316406 C 154.875 54.976562 155.34375 53.984375 155.863281 53.457031 C 161.382812 47.890625 167.140625 42.664062 174.757812 40.28125 C 183.160156 37.652344 192.574219 40.980469 200.570312 43.660156 C 204.378906 44.941406 208.183594 46.21875 211.992188 47.496094 C 213.898438 48.136719 216.027344 48.765625 217.851562 47.925781 C 219.800781 47.023438 221.175781 44.546875 223.300781 44.816406 " fill-opacity="1" fill-rule="nonzero"/><g clip-path="url(#clip-1)"><path fill="rgb(18.03894%, 18.03894%, 18.03894%)" d="M 207.363281 117.164062 C 207.308594 112.050781 205.703125 107.875 201.925781 104.773438 C 198.402344 101.878906 194.246094 100.429688 189.722656 100.027344 C 188.472656 99.914062 187.375 100.191406 186.441406 101.167969 C 183.160156 104.585938 180.234375 108.261719 178.316406 112.632812 C 175.507812 119.035156 177.332031 127.574219 182.539062 132.277344 C 183.605469 133.238281 184.945312 134.039062 186.296875 134.53125 C 191.882812 136.546875 196.894531 135.28125 201.21875 131.351562 C 205.453125 127.5 207.074219 122.460938 207.363281 117.164062 Z M 144.09375 306.84375 C 144.023438 307.132812 143.949219 307.414062 144.085938 306.878906 C 144.03125 307.445312 144.058594 307.164062 144.085938 306.875 C 142.632812 300.015625 141.222656 293.148438 139.71875 286.300781 C 138.015625 278.527344 136.160156 270.789062 134.511719 263 C 133.8125 259.707031 133.445312 256.34375 132.976562 253.003906 C 132.769531 251.53125 133.101562 250.648438 133.742188 250.625 C 134.765625 250.585938 135.128906 251.398438 135.398438 252.125 C 136.058594 253.894531 136.714844 255.675781 137.1875 257.5 C 139.398438 265.984375 141.566406 274.480469 143.714844 282.980469 C 145.933594 291.742188 148.027344 300.535156 151.015625 309.078125 C 151.21875 309.664062 151.738281 310.296875 152.152344 310.730469 C 152.375 308.164062 151.648438 305.539062 151.339844 303.003906 C 150.984375 300.011719 150.617188 297.019531 150.257812 294.03125 C 149.546875 288.132812 148.839844 282.234375 148.175781 276.332031 C 147.386719 269.359375 146.894531 262.355469 146.894531 255.328125 C 146.894531 254.523438 146.894531 253.703125 147.027344 252.914062 C 147.082031 252.621094 147.515625 252.207031 147.789062 252.199219 C 148.074219 252.191406 148.445312 252.550781 148.648438 252.839844 C 148.871094 253.160156 149 253.574219 149.082031 253.964844 C 150.804688 262.285156 152.605469 270.589844 154.207031 278.933594 C 155.910156 287.808594 157.410156 296.722656 159.035156 305.613281 C 159.226562 306.664062 159.476562 308.492188 160.121094 309.316406 C 160.714844 308.789062 160.785156 307.765625 160.78125 307.015625 C 160.726562 301.65625 160.835938 296.269531 160.949219 290.902344 C 161.054688 286.050781 161.308594 281.195312 161.429688 276.34375 C 161.570312 270.675781 161.636719 265.007812 161.753906 259.335938 C 161.773438 258.679688 161.863281 257.996094 162.078125 257.382812 C 162.183594 257.085938 162.648438 256.773438 162.980469 256.738281 C 163.304688 256.707031 163.832031 256.925781 163.980469 257.195312 C 164.292969 257.765625 164.492188 258.425781 164.605469 259.074219 C 165.097656 261.863281 165.527344 264.664062 165.996094 267.460938 C 167.238281 274.773438 168.527344 282.082031 169.722656 289.402344 C 170.546875 294.464844 171.246094 299.542969 172.015625 304.613281 C 172.226562 306.035156 172.414062 307.476562 173.410156 309.191406 C 173.554688 308.144531 173.667969 307.621094 173.691406 307.09375 C 174.136719 296.851562 174.605469 286.609375 174.996094 276.367188 C 175.195312 271.101562 175.203125 265.835938 175.40625 260.578125 C 175.457031 259.167969 175.171875 257.574219 176.484375 256.4375 C 177.796875 257.082031 177.296875 258.296875 177.398438 259.292969 C 177.507812 260.367188 177.523438 261.445312 177.585938 262.523438 C 177.652344 263.601562 177.695312 264.683594 177.804688 265.757812 C 177.910156 266.832031 178.105469 267.894531 178.230469 268.96875 C 178.355469 270.042969 178.421875 271.121094 178.542969 272.191406 C 179.851562 283.332031 181.011719 294.476562 182.691406 305.566406 C 182.949219 307.285156 183.042969 309.851562 184.292969 311.1875 C 184.554688 310.265625 184.761719 309.808594 184.804688 309.335938 C 185.417969 302.75 185.980469 296.164062 186.609375 289.582031 C 187.199219 283.402344 187.765625 277.21875 188.515625 271.058594 C 188.988281 267.179688 189.765625 263.339844 190.441406 259.488281 C 190.554688 258.835938 190.769531 258.175781 191.082031 257.601562 C 191.242188 257.304688 191.816406 256.960938 192.050781 257.050781 C 192.46875 257.207031 192.863281 257.625 193.09375 258.03125 C 193.277344 258.351562 193.222656 258.820312 193.234375 259.222656 C 193.410156 265.964844 193.511719 272.710938 193.769531 279.453125 C 194.050781 286.867188 194.4375 294.277344 194.855469 301.6875 C 194.964844 303.65625 195.363281 305.605469 195.675781 307.925781 C 196.957031 305.785156 203.863281 275.589844 207.097656 262.492188 C 207.324219 261.582031 207.5625 260.648438 207.957031 259.804688 C 208.15625 259.375 208.660156 258.957031 209.113281 258.8125 C 209.539062 258.679688 210.074219 258.917969 210.839844 259.03125 C 210.113281 272.226562 210.152344 285.253906 210.265625 298.351562 C 211.441406 298 217.523438 273.648438 220.488281 262.292969 C 220.792969 261.117188 221.089844 259.9375 221.480469 258.789062 C 221.816406 257.808594 222.824219 257.328125 223.730469 257.609375 C 224.53125 257.863281 224.613281 258.527344 224.601562 259.226562 C 224.597656 259.632812 224.609375 260.039062 224.578125 260.441406 C 224.171875 265.960938 223.828125 271.484375 223.324219 276.992188 C 222.761719 283.175781 221.398438 297.855469 221.398438 299.125 C 222.535156 298.507812 223.96875 291.910156 224.546875 289.550781 C 226.949219 279.722656 229.335938 269.894531 231.742188 260.066406 C 232 259.023438 232.296875 257.976562 232.675781 256.96875 C 233 256.117188 234.117188 255.6875 235.042969 255.964844 C 235.8125 256.195312 236.039062 256.816406 236.039062 257.53125 C 236.035156 258.339844 236.019531 259.152344 235.925781 259.957031 C 235.234375 265.988281 234.5625 272.023438 233.796875 278.042969 C 233.113281 283.398438 231.378906 294.914062 231.273438 295.320312 C 231.445312 295.324219 232.835938 292.707031 233.042969 292.082031 C 237.582031 278.359375 242.550781 264.816406 248.832031 251.78125 C 249.167969 251.082031 249.328125 250.300781 249.566406 249.578125 C 249.148438 249.378906 248.925781 249.191406 248.691406 249.179688 C 248.15625 249.148438 247.613281 249.183594 247.078125 249.226562 C 238.609375 249.980469 230.136719 249.863281 221.65625 249.46875 C 215.335938 249.175781 209.015625 248.8125 202.691406 248.699219 C 186.796875 248.414062 170.914062 248.863281 155.050781 249.875 C 152.902344 250.011719 150.75 250.050781 148.597656 250.136719 C 141.578125 250.425781 134.609375 250.164062 127.753906 248.421875 C 126.894531 248.203125 125.996094 248.105469 125.058594 247.941406 C 124.636719 249.789062 125.550781 251.058594 126.007812 252.410156 C 128.640625 260.203125 131.496094 267.925781 133.953125 275.777344 C 136.476562 283.820312 138.617188 291.972656 140.96875 300.0625 C 141.492188 301.859375 142.066406 303.640625 142.691406 305.40625 C 142.996094 306.257812 143.441406 306.339844 144.09375 306.84375 Z M 145.949219 308.671875 C 146.238281 310.496094 145.996094 312.40625 145.996094 314.144531 C 145.136719 314.804688 144.507812 314.554688 144.167969 313.90625 C 143.609375 312.839844 143.105469 311.71875 142.730469 310.570312 C 140.660156 304.152344 138.441406 297.777344 136.628906 291.285156 C 133.003906 278.285156 129.113281 265.371094 124.789062 252.589844 C 124.1875 250.808594 123.703125 248.980469 123.089844 246.925781 C 122.242188 246.257812 121.148438 245.480469 120.152344 244.59375 C 117.144531 241.90625 116.371094 237.378906 120.269531 234.023438 C 122.136719 232.417969 124.21875 231.222656 126.472656 230.292969 C 130.621094 228.582031 134.992188 227.75 139.402344 227.203125 C 155.980469 225.152344 172.964844 226.816406 189.5625 228.109375 C 196.769531 228.667969 203.96875 229.332031 211.160156 230.097656 C 218.160156 230.84375 225.027344 230.859375 232.058594 230.859375 C 237.03125 230.511719 242 230.035156 246.785156 228.558594 C 248.960938 227.886719 251.105469 227.007812 253.09375 225.914062 C 254.46875 225.152344 255.71875 223.996094 256.730469 222.769531 C 258.734375 220.355469 258.429688 217.953125 255.90625 216.167969 C 254.613281 215.246094 253.105469 214.570312 251.605469 214.003906 C 247.667969 212.507812 243.511719 212.007812 239.34375 211.71875 C 231.246094 211.164062 223.1875 211.8125 215.164062 212.8125 C 207.421875 213.777344 199.71875 215.066406 191.984375 216.15625 C 189.1875 216.550781 186.375 216.863281 183.554688 217.066406 C 172.003906 217.914062 160.429688 218.328125 148.847656 218.144531 C 144.648438 218.078125 140.558594 217.28125 136.601562 215.828125 C 134.550781 215.078125 132.667969 214.039062 131.070312 212.558594 C 127.585938 209.335938 127.273438 205.527344 130.097656 201.726562 C 131.574219 199.738281 133.527344 198.308594 135.59375 197.019531 C 141.414062 193.402344 147.8125 191.5 154.550781 190.511719 C 170.777344 188.128906 187.554688 192.179688 203.691406 193.722656 C 216.152344 194.914062 230.4375 195.84375 242.042969 190.253906 C 243.917969 189.351562 245.8125 188.191406 246.746094 186.335938 C 248.75 182.359375 244.292969 179.542969 241.183594 178.300781 C 237.503906 176.832031 233.644531 176.300781 229.742188 176.042969 C 222.046875 175.539062 214.394531 176.089844 206.785156 177.179688 C 199.722656 178.191406 192.699219 179.46875 185.632812 180.441406 C 177.355469 181.582031 169.027344 182.203125 160.664062 181.648438 C 158.523438 181.507812 156.382812 181.140625 154.289062 180.667969 C 152.300781 180.226562 150.488281 179.289062 149.082031 177.734375 C 147.167969 175.613281 147.011719 173.03125 148.6875 170.703125 C 150.136719 168.691406 152.101562 167.28125 154.253906 166.109375 C 159.027344 163.515625 164.105469 161.773438 169.390625 160.605469 C 178.011719 158.707031 186.753906 158.625 195.515625 158.976562 C 199.953125 159.15625 204.386719 159.414062 208.824219 159.503906 C 212.203125 159.570312 215.539062 159.078125 218.785156 158.09375 C 221.414062 157.296875 223.769531 155.992188 225.492188 153.804688 C 226.234375 152.871094 226.84375 151.78125 227.273438 150.671875 C 227.921875 149.007812 227.542969 147.363281 226.15625 146.269531 C 224.800781 145.195312 223.285156 144.246094 221.707031 143.550781 C 218.066406 141.945312 214.164062 141.476562 210.238281 141.757812 C 206.894531 142 203.5625 142.546875 200.253906 143.121094 C 196.148438 143.839844 192.09375 144.875 187.976562 145.507812 C 173.789062 147.691406 162.535156 134.039062 163.65625 120.484375 C 164.226562 113.582031 167.925781 107 173.519531 102.9375 C 177.726562 99.875 182.8125 98.257812 187.207031 95.46875 C 191.992188 92.429688 195.535156 88.179688 199.007812 83.773438 C 207.253906 73.304688 215.558594 61.875 220.164062 49.253906 C 220.539062 48.226562 220.910156 47.148438 221.699219 46.394531 C 222.230469 45.890625 223.757812 45.203125 224.410156 45.910156 C 224.953125 46.496094 223.839844 48.289062 223.570312 48.949219 C 222.523438 51.539062 221.382812 54.09375 220.144531 56.59375 C 216.511719 63.945312 211.996094 70.78125 207.117188 77.351562 C 204.597656 80.746094 201.976562 84.0625 199.308594 87.339844 C 198.316406 88.554688 192.460938 97.210938 191.207031 97.070312 C 199.042969 97.96875 206.125 103.707031 208.640625 111.199219 C 211.160156 118.695312 208.988281 127.558594 203.292969 133.03125 C 199.191406 136.972656 193.21875 139.128906 187.671875 137.902344 C 180.644531 136.34375 175.507812 129.511719 174.664062 122.339844 C 173.820312 115.171875 176.710938 107.925781 181.230469 102.304688 C 180.742188 102.914062 178.351562 103.367188 177.566406 103.78125 C 176.34375 104.429688 175.191406 105.214844 174.128906 106.109375 C 171.992188 107.914062 170.308594 110.226562 168.914062 112.632812 C 165.992188 117.671875 165.363281 123.027344 167.128906 128.632812 C 168.367188 132.582031 170.46875 135.980469 173.457031 138.835938 C 177.117188 142.328125 181.574219 143.644531 186.453125 143.066406 C 190.714844 142.566406 194.949219 141.679688 199.140625 140.71875 C 203.097656 139.808594 207.097656 139.140625 211.121094 139.078125 C 215.847656 139.003906 220.507812 139.6875 224.773438 142.054688 C 232.003906 146.0625 230.578125 151.726562 227.210938 155.835938 C 225.160156 158.332031 222.414062 159.726562 219.375 160.570312 C 210.089844 163.136719 200.695312 161.511719 191.265625 161.203125 C 181.796875 160.898438 172.40625 161.5 163.363281 164.644531 C 160.578125 165.613281 157.828125 166.777344 155.234375 168.183594 C 153.5 169.125 151.9375 170.519531 150.554688 171.957031 C 149.011719 173.5625 149.160156 175.089844 151 176.414062 C 152.277344 177.332031 153.816406 177.988281 155.335938 178.425781 C 159.132812 179.523438 163.0625 179.382812 166.964844 179.355469 C 183.632812 179.246094 199.800781 174.828125 216.367188 173.484375 C 223.789062 172.878906 231.015625 172.707031 238.332031 174.359375 C 241.394531 175.035156 244.195312 176.300781 246.695312 178.234375 C 251.710938 182.109375 250.144531 188.152344 246.804688 190.828125 C 245.351562 191.992188 243.664062 192.929688 241.960938 193.6875 C 237.355469 195.742188 232.445312 196.609375 227.457031 196.976562 C 217.617188 197.707031 207.816406 197.179688 198.035156 195.953125 C 188.417969 194.75 178.804688 193.496094 169.164062 192.550781 C 161.609375 191.808594 154.097656 192.476562 146.773438 194.628906 C 142.347656 195.933594 138.175781 197.832031 134.566406 200.746094 C 133.226562 201.828125 132.0625 203.191406 131.039062 204.585938 C 129.976562 206.042969 130.207031 207.660156 131.207031 209.128906 C 134.480469 213.929688 141.539062 214.773438 146.8125 215.285156 C 153.652344 215.953125 160.539062 215.710938 167.394531 215.375 C 175.699219 214.964844 184.003906 214.417969 192.265625 213.445312 C 200.53125 212.46875 208.667969 210.863281 216.933594 209.941406 C 220.90625 209.5 224.886719 209.144531 228.878906 208.898438 C 235.519531 208.488281 242.050781 208.855469 248.566406 210.03125 C 251.09375 210.488281 253.53125 211.289062 255.761719 212.589844 C 256.800781 213.199219 257.835938 213.882812 258.695312 214.71875 C 260.835938 216.792969 261.378906 219.285156 260.351562 222.128906 C 259.285156 225.078125 257.21875 227.125 254.597656 228.671875 C 251.902344 230.265625 248.933594 231.144531 245.917969 231.886719 C 237.992188 233.839844 230.109375 233.855469 222.007812 233.46875 C 213.660156 233.070312 205.339844 232.28125 197.027344 231.453125 C 180.460938 229.796875 163.824219 227.945312 147.148438 228.652344 C 142.484375 228.855469 137.886719 229.1875 133.339844 230.292969 C 130.867188 230.890625 128.445312 231.746094 126.0625 232.65625 C 124.035156 233.4375 122.277344 234.714844 120.816406 236.351562 C 119.070312 238.300781 119.03125 240.140625 120.699219 242.128906 C 121.855469 243.503906 123.355469 244.390625 125.011719 245.039062 C 128.429688 246.371094 131.984375 247.1875 135.632812 247.304688 C 141.011719 247.480469 146.40625 247.640625 151.785156 247.453125 C 162.136719 247.082031 172.480469 246.28125 182.835938 246.011719 C 190.902344 245.800781 198.988281 246.085938 207.0625 246.21875 C 218.503906 246.414062 229.898438 247.773438 241.359375 247.554688 C 243.914062 247.507812 246.472656 247.425781 249.03125 247.359375 C 249.703125 247.339844 250.378906 247.277344 251.046875 247.3125 C 251.910156 247.359375 252.621094 248.085938 252.484375 248.914062 C 252.265625 250.234375 251.96875 251.554688 251.585938 252.839844 C 249.226562 260.710938 246.050781 268.292969 242.847656 275.847656 C 239.660156 283.355469 236.773438 290.945312 234.195312 298.691406 C 232.835938 302.753906 231.554688 306.84375 230.34375 310.949219 C 230.046875 311.945312 230.046875 313.113281 228.699219 313.535156 C 227.257812 312.652344 227.015625 311.21875 227.058594 309.703125 C 227.136719 306.734375 227.113281 303.753906 227.402344 300.804688 C 227.90625 295.703125 228.625 290.625 229.242188 285.53125 C 229.292969 285.140625 229.25 284.738281 229.25 283.4375 C 227.441406 287.601562 226.910156 291.234375 225.890625 294.710938 C 224.824219 298.339844 223.859375 301.996094 222.703125 305.589844 C 221.558594 309.132812 221.316406 312.941406 219.851562 316.289062 C 218.503906 316.382812 218.09375 315.660156 218.03125 314.851562 C 217.839844 312.304688 217.507812 309.730469 217.675781 307.199219 C 218.210938 299.257812 218.964844 291.328125 219.601562 283.394531 C 219.6875 282.332031 219.613281 281.25 219.613281 279.847656 C 219.226562 280.234375 218.902344 280.402344 218.839844 280.636719 C 216.507812 289.503906 213.476562 298.191406 212.058594 307.292969 C 211.6875 309.675781 211.863281 312.707031 210.652344 314.851562 C 210.574219 314.984375 210.488281 315.121094 210.371094 315.21875 C 210.035156 315.507812 209.496094 315.453125 209.140625 315.191406 C 208.097656 314.414062 208.027344 312.679688 207.886719 311.507812 C 207.421875 307.5625 207.578125 303.617188 207.535156 299.652344 C 207.492188 295.707031 207.46875 291.765625 207.4375 287.820312 C 207.410156 283.914062 207.433594 280.007812 207.433594 276.082031 C 206.4375 276.148438 206.320312 276.914062 206.164062 277.503906 C 203.839844 286.378906 201.5 295.25 199.28125 304.152344 C 198.3125 308.046875 198.363281 312.3125 197.027344 316.09375 C 196.902344 316.433594 196.746094 316.792969 196.433594 316.972656 C 196.058594 317.1875 195.5625 317.074219 195.238281 316.785156 C 194.917969 316.5 194.746094 316.074219 194.652344 315.65625 C 193.980469 312.691406 193.433594 309.625 193.113281 306.601562 C 191.984375 295.992188 191.464844 285.34375 191.480469 274.671875 C 191.480469 272.921875 191.480469 271.175781 191.480469 269.113281 C 190.203125 270.277344 190.71875 271.492188 190.460938 272.519531 C 190.199219 273.558594 190.050781 274.640625 189.941406 275.710938 C 189.058594 284.171875 188.222656 292.636719 187.320312 301.089844 C 186.832031 305.679688 186.441406 310.359375 185.683594 314.910156 C 185.535156 315.804688 185.105469 316.742188 184.273438 317.097656 C 184.21875 317.121094 184.160156 317.144531 184.101562 317.128906 C 184.042969 317.109375 183.996094 317.054688 183.957031 317.007812 C 182.386719 314.898438 182.078125 312.191406 181.742188 309.664062 C 180.585938 300.992188 179.480469 292.316406 178.359375 283.644531 C 178.070312 281.398438 177.753906 279.15625 177.03125 276.921875 C 176.949219 277.78125 176.828125 278.636719 176.796875 279.496094 C 176.519531 287.046875 176.300781 294.605469 175.96875 302.15625 C 175.820312 305.523438 175.472656 308.886719 175.1875 312.246094 C 175.085938 313.433594 175.019531 314.660156 173.945312 315.429688 C 172.816406 315.519531 172.4375 314.675781 172.230469 313.957031 C 171.550781 311.625 170.859375 309.285156 170.445312 306.898438 C 169.277344 300.117188 168.296875 293.300781 167.140625 286.519531 C 166.421875 282.28125 165.914062 277.992188 164.59375 273.710938 C 163.726562 274.160156 164.015625 274.863281 163.996094 275.382812 C 163.621094 283.878906 163.261719 292.375 162.933594 300.871094 C 162.835938 303.425781 162.765625 305.980469 162.691406 308.535156 C 162.648438 309.984375 162.707031 311.433594 162.652344 312.878906 C 162.609375 314.019531 162.636719 315.605469 162.015625 316.609375 C 161.902344 316.792969 161.746094 316.96875 161.535156 317.027344 C 161.304688 317.089844 161.058594 316.996094 160.875 316.84375 C 160.695312 316.6875 160.570312 316.480469 160.453125 316.273438 C 159.414062 314.417969 158.898438 312.417969 158.335938 310.386719 C 157.722656 308.175781 157.144531 305.953125 156.71875 303.699219 C 154.992188 294.550781 153.4375 285.371094 151.789062 276.207031 C 151.265625 273.296875 150.660156 270.398438 149.644531 267.519531 C 149.601562 268.292969 149.453125 269.074219 149.535156 269.832031 C 150.6875 280.433594 151.875 291.027344 153.050781 301.628906 C 153.394531 304.710938 153.761719 307.796875 154.050781 310.890625 C 154.167969 312.09375 154.195312 313.324219 154.089844 314.527344 C 154.035156 315.121094 153.71875 316.015625 153.289062 316.1875 C 152.324219 316.578125 151.90625 315.632812 151.597656 314.914062 C 150.523438 312.441406 149.375 309.992188 148.496094 307.449219 C 147.085938 303.371094 145.855469 299.234375 144.589844 295.105469 C 144.359375 294.351562 144.171875 292.382812 143.011719 291.496094 C 143.109375 292.441406 145.175781 303.75 145.949219 308.671875 " fill-opacity="1" fill-rule="nonzero"/></g></svg>