<?xml version="1.0" encoding="UTF-8"?><svg xmlns="http://www.w3.org/2000/svg" xmlns:xlink="http://www.w3.org/1999/xlink" contentScriptType="text/ecmascript" width="224.87999" zoomAndPan="magnify" contentStyleType="text/css" viewBox="0 0 224.87999 374.999991" height="374.999991" preserveAspectRatio="xMidYMid meet" version="1.0"><defs><clipPath id="clip-0"><path d="M 12.179688 133 L 213.042969 133 L 213.042969 285.769531 L 12.179688 285.769531 Z M 12.179688 133 " clip-rule="nonzero"/></clipPath><clipPath id="clip-1"><path d="M 18.433594 10.351562 L 212 10.351562 L 212 374.738281 L 18.433594 374.738281 Z M 18.433594 10.351562 " clip-rule="nonzero"/></clipPath></defs><g clip-path="url(#clip-0)"><path fill="rgb(89.7995%, 89.7995%, 89.7995%)" d="M 177.039062 285.628906 C 153.175781 285.625 129.347656 281.957031 105.453125 281.21875 C 78.007812 280.375 50.292969 283.378906 23.21875 278.800781 C 20.945312 278.414062 18.617188 277.953125 16.671875 276.710938 C 12.410156 273.992188 11.148438 267.914062 13.027344 263.226562 C 14.902344 258.535156 19.285156 255.203125 24.023438 253.425781 C 28.757812 251.648438 33.875 251.222656 38.921875 250.828125 C 33.164062 250.378906 27.796875 246.585938 25.457031 241.316406 C 21.121094 231.550781 27.71875 219.847656 36.863281 214.300781 C 46.007812 208.753906 57.027344 207.558594 67.503906 205.378906 C 61.773438 204.507812 56.089844 202.453125 51.761719 198.609375 C 47.429688 194.765625 44.632812 188.953125 45.3125 183.210938 C 46.097656 176.628906 51.242188 171.207031 57.191406 168.265625 C 63.144531 165.328125 69.871094 164.433594 76.460938 163.589844 C 70.964844 161.15625 69.902344 153.136719 73.148438 148.082031 C 76.390625 143.023438 82.445312 140.507812 88.324219 139.238281 C 91.347656 138.585938 94.414062 138.195312 97.457031 137.660156 C 100.386719 137.144531 103.351562 135.753906 106.207031 135.347656 C 109.144531 134.929688 112.484375 135.8125 115.550781 135.5 C 119.035156 135.144531 122.476562 134.421875 125.945312 133.9375 C 138.714844 132.15625 151.945312 133.746094 163.929688 138.496094 C 166.859375 139.660156 169.882812 141.148438 171.527344 143.839844 C 173.515625 147.105469 172.925781 151.457031 170.941406 154.730469 C 168.960938 158 165.8125 160.382812 162.617188 162.492188 C 156.023438 166.839844 148.886719 170.367188 141.425781 172.964844 C 154.84375 175.027344 168.265625 177.09375 181.683594 179.152344 C 185.535156 179.746094 189.472656 180.367188 192.898438 182.214844 C 196.324219 184.070312 199.199219 187.421875 199.375 191.304688 C 199.585938 195.921875 196.09375 199.851562 192.460938 202.714844 C 184.402344 209.0625 174.691406 212.898438 165.140625 216.644531 C 179.519531 220.546875 194.261719 224.621094 206.300781 233.386719 C 209.511719 235.726562 212.71875 238.796875 213.023438 242.75 C 213.285156 246.226562 211.210938 249.445312 208.839844 252.003906 C 203.988281 257.246094 197.492188 260.953125 190.503906 262.472656 C 193.714844 264.308594 196.925781 266.140625 200.136719 267.972656 C 202.679688 269.425781 205.480469 271.222656 206.027344 274.09375 C 206.449219 276.304688 205.34375 278.566406 203.789062 280.195312 C 199.933594 284.226562 193.855469 285.027344 188.277344 285.332031 C 184.53125 285.539062 180.785156 285.628906 177.039062 285.628906 " fill-opacity="1" fill-rule="nonzero"/></g><path fill="rgb(99.21875%, 69.40918%, 20.779419%)" d="M 131.160156 370 C 130.070312 370.050781 128.980469 370.089844 127.898438 370.121094 C 107.785156 370.773438 86.996094 370.507812 68.511719 362.5625 C 64.753906 360.949219 61.027344 358.953125 58.378906 355.835938 C 55.929688 352.9375 54.582031 349.292969 53.28125 345.734375 C 48.371094 332.285156 43.460938 318.828125 39.03125 305.21875 C 37.941406 301.867188 36.878906 298.242188 37.976562 294.898438 C 40.871094 286.082031 55.582031 288.605469 62.457031 288.746094 C 73.90625 288.984375 85.347656 289.488281 96.792969 289.921875 C 119.410156 290.78125 142.554688 291.414062 165.28125 289.160156 C 166.421875 289.046875 167.554688 288.925781 168.691406 288.800781 C 175.582031 288.027344 182.515625 286.980469 189.425781 287.574219 C 191.101562 287.71875 192.90625 288.027344 194.0625 289.242188 C 195.445312 290.710938 195.441406 292.96875 195.285156 294.976562 C 194.066406 310.917969 188.996094 326.429688 181.664062 340.648438 C 177.816406 348.113281 173.1875 355.433594 166.46875 360.488281 C 156.574219 367.929688 143.652344 369.460938 131.160156 370 " fill-opacity="1" fill-rule="nonzero"/><path fill="rgb(87.059021%, 58.81958%, 6.669617%)" d="M 125.796875 132.828125 C 125.75 132.851562 125.707031 132.871094 125.664062 132.894531 C 120.617188 135.28125 114.828125 135.972656 109.304688 135.132812 C 100.710938 133.828125 92.730469 128.710938 88.109375 121.359375 C 83.484375 114.011719 82.347656 104.539062 85.261719 96.359375 C 87.179688 90.980469 90.839844 86.261719 95.496094 82.960938 C 96.664062 82.132812 97.894531 81.394531 99.179688 80.757812 C 100.40625 80.152344 101.832031 79.414062 103.1875 79.175781 C 104.671875 78.914062 106.113281 78.394531 107.609375 78.101562 C 109.214844 77.789062 110.851562 77.617188 112.488281 77.582031 C 117.238281 77.488281 122.015625 78.570312 126.230469 80.769531 C 133.148438 84.375 138.449219 90.914062 140.617188 98.394531 C 142.789062 105.875 141.824219 114.195312 138.070312 121.023438 C 135.292969 126.074219 131 130.332031 125.796875 132.828125 " fill-opacity="1" fill-rule="nonzero"/><path fill="rgb(26.669312%, 26.669312%, 26.669312%)" d="M 161 9.90625 C 157.199219 18.425781 148.273438 23.40625 139.5625 26.769531 C 133.59375 29.074219 127.398438 30.917969 121.027344 31.546875 C 114.65625 32.175781 108.085938 31.546875 102.1875 29.066406 C 98.113281 27.351562 94.421875 24.785156 90.28125 23.230469 C 83.710938 20.761719 76.152344 21.035156 69.773438 23.976562 C 68.894531 23.519531 69.523438 22.1875 70.222656 21.484375 C 77.65625 14.023438 85.40625 7.023438 95.65625 3.832031 C 106.964844 0.308594 119.636719 4.765625 130.402344 8.359375 C 135.527344 10.074219 140.652344 11.785156 145.777344 13.5 C 148.339844 14.355469 151.207031 15.199219 153.664062 14.070312 C 156.285156 12.863281 158.136719 9.546875 161 9.90625 " fill-opacity="1" fill-rule="nonzero"/><g clip-path="url(#clip-1)"><path fill="rgb(18.03894%, 18.03894%, 18.03894%)" d="M 139.542969 106.835938 C 139.46875 99.980469 137.3125 94.386719 132.226562 90.234375 C 127.484375 86.355469 121.890625 84.414062 115.804688 83.875 C 114.117188 83.722656 112.644531 84.09375 111.382812 85.402344 C 106.96875 89.980469 103.027344 94.90625 100.445312 100.761719 C 96.671875 109.335938 99.125 120.777344 106.128906 127.078125 C 107.566406 128.371094 109.371094 129.445312 111.1875 130.097656 C 118.710938 132.800781 125.453125 131.105469 131.273438 125.839844 C 136.976562 120.679688 139.160156 113.929688 139.542969 106.835938 Z M 54.386719 360.953125 C 54.289062 361.339844 54.191406 361.71875 54.375 361 C 54.296875 361.761719 54.335938 361.382812 54.375 360.996094 C 52.417969 351.808594 50.519531 342.605469 48.496094 333.429688 C 46.203125 323.015625 43.703125 312.648438 41.484375 302.214844 C 40.542969 297.804688 40.054688 293.296875 39.417969 288.824219 C 39.140625 286.851562 39.585938 285.664062 40.449219 285.636719 C 41.828125 285.582031 42.316406 286.671875 42.683594 287.648438 C 43.570312 290.019531 44.449219 292.40625 45.089844 294.84375 C 48.066406 306.210938 50.980469 317.59375 53.875 328.984375 C 56.859375 340.71875 59.675781 352.503906 63.699219 363.949219 C 63.976562 364.734375 64.675781 365.582031 65.230469 366.164062 C 65.527344 362.722656 64.550781 359.207031 64.136719 355.808594 C 63.65625 351.800781 63.164062 347.792969 62.679688 343.785156 C 61.722656 335.886719 60.773438 327.984375 59.875 320.078125 C 58.816406 310.734375 58.152344 301.351562 58.152344 291.9375 C 58.152344 290.855469 58.152344 289.757812 58.332031 288.703125 C 58.402344 288.3125 58.992188 287.753906 59.355469 287.746094 C 59.742188 287.730469 60.238281 288.214844 60.515625 288.601562 C 60.816406 289.03125 60.988281 289.585938 61.097656 290.109375 C 63.417969 301.253906 65.839844 312.382812 67.996094 323.5625 C 70.289062 335.453125 72.304688 347.394531 74.492188 359.304688 C 74.753906 360.710938 75.089844 363.164062 75.957031 364.265625 C 76.753906 363.558594 76.851562 362.1875 76.84375 361.183594 C 76.773438 354.003906 76.917969 346.789062 77.074219 339.597656 C 77.214844 333.09375 77.554688 326.59375 77.71875 320.089844 C 77.910156 312.5 77.996094 304.902344 78.15625 297.308594 C 78.179688 296.425781 78.300781 295.511719 78.589844 294.6875 C 78.734375 294.289062 79.359375 293.875 79.804688 293.828125 C 80.242188 293.785156 80.949219 294.078125 81.148438 294.4375 C 81.570312 295.203125 81.84375 296.085938 81.996094 296.953125 C 82.65625 300.691406 83.230469 304.445312 83.867188 308.1875 C 85.539062 317.988281 87.273438 327.78125 88.878906 337.585938 C 89.992188 344.367188 90.933594 351.175781 91.964844 357.964844 C 92.25 359.871094 92.503906 361.800781 93.84375 364.097656 C 94.039062 362.695312 94.191406 361.996094 94.222656 361.289062 C 94.824219 347.566406 95.453125 333.84375 95.976562 320.121094 C 96.246094 313.070312 96.257812 306.015625 96.53125 298.96875 C 96.601562 297.078125 96.214844 294.941406 97.980469 293.421875 C 99.75 294.285156 99.074219 295.914062 99.210938 297.246094 C 99.359375 298.6875 99.378906 300.132812 99.46875 301.578125 C 99.550781 303.023438 99.609375 304.46875 99.757812 305.910156 C 99.902344 307.347656 100.167969 308.773438 100.332031 310.210938 C 100.5 311.648438 100.585938 313.09375 100.753906 314.53125 C 102.515625 329.453125 104.074219 344.386719 106.335938 359.242188 C 106.683594 361.542969 106.808594 364.984375 108.492188 366.777344 C 108.84375 365.539062 109.125 364.925781 109.183594 364.292969 C 110.003906 355.472656 110.761719 346.644531 111.609375 337.828125 C 112.40625 329.546875 113.167969 321.261719 114.175781 313.011719 C 114.8125 307.8125 115.859375 302.667969 116.769531 297.507812 C 116.921875 296.636719 117.207031 295.75 117.628906 294.980469 C 117.847656 294.585938 118.617188 294.125 118.933594 294.242188 C 119.496094 294.457031 120.027344 295.011719 120.339844 295.554688 C 120.585938 295.984375 120.515625 296.613281 120.53125 297.152344 C 120.765625 306.1875 120.902344 315.226562 121.246094 324.257812 C 121.625 334.1875 122.148438 344.117188 122.710938 354.046875 C 122.859375 356.679688 123.390625 359.296875 123.816406 362.40625 C 125.539062 359.535156 134.832031 319.082031 139.1875 301.535156 C 139.496094 300.3125 139.816406 299.066406 140.34375 297.933594 C 140.613281 297.355469 141.289062 296.800781 141.902344 296.605469 C 142.472656 296.425781 143.195312 296.746094 144.222656 296.898438 C 143.246094 314.578125 143.300781 332.03125 143.453125 349.578125 C 145.035156 349.105469 153.222656 316.480469 157.210938 301.265625 C 157.625 299.695312 158.019531 298.109375 158.546875 296.574219 C 158.996094 295.261719 160.355469 294.613281 161.578125 294.996094 C 162.652344 295.332031 162.765625 296.21875 162.75 297.160156 C 162.742188 297.703125 162.757812 298.246094 162.714844 298.789062 C 162.167969 306.179688 161.707031 313.582031 161.03125 320.960938 C 160.269531 329.242188 158.4375 348.910156 158.4375 350.613281 C 159.96875 349.785156 161.898438 340.945312 162.671875 337.785156 C 165.90625 324.621094 169.121094 311.449219 172.363281 298.285156 C 172.707031 296.882812 173.105469 295.484375 173.617188 294.136719 C 174.050781 292.992188 175.554688 292.417969 176.804688 292.789062 C 177.839844 293.097656 178.144531 293.929688 178.140625 294.886719 C 178.136719 295.96875 178.117188 297.0625 177.992188 298.136719 C 177.058594 306.21875 176.15625 314.300781 175.125 322.371094 C 174.207031 329.542969 171.875 344.96875 171.726562 345.515625 C 171.960938 345.519531 173.832031 342.015625 174.109375 341.175781 C 180.21875 322.792969 186.910156 304.648438 195.363281 287.1875 C 195.816406 286.246094 196.03125 285.199219 196.351562 284.234375 C 195.792969 283.96875 195.488281 283.714844 195.171875 283.695312 C 194.453125 283.65625 193.722656 283.703125 193 283.765625 C 181.601562 284.773438 170.195312 284.617188 158.785156 284.085938 C 150.277344 283.695312 141.769531 283.210938 133.257812 283.058594 C 111.863281 282.675781 90.488281 283.277344 69.132812 284.632812 C 66.238281 284.816406 63.339844 284.863281 60.445312 284.980469 C 51 285.367188 41.617188 285.019531 32.390625 282.683594 C 31.230469 282.390625 30.023438 282.257812 28.765625 282.039062 C 28.195312 284.515625 29.425781 286.21875 30.039062 288.023438 C 33.585938 298.46875 37.425781 308.816406 40.738281 319.335938 C 44.128906 330.109375 47.015625 341.027344 50.175781 351.867188 C 50.878906 354.277344 51.652344 356.664062 52.5 359.027344 C 52.90625 360.171875 53.507812 360.277344 54.386719 360.953125 Z M 56.882812 363.402344 C 57.269531 365.847656 56.945312 368.40625 56.945312 370.734375 C 55.789062 371.621094 54.941406 371.285156 54.484375 370.417969 C 53.730469 368.984375 53.050781 367.484375 52.550781 365.945312 C 49.761719 357.347656 46.777344 348.804688 44.335938 340.109375 C 39.453125 322.691406 34.222656 305.390625 28.398438 288.265625 C 27.589844 285.878906 26.9375 283.433594 26.113281 280.679688 C 24.972656 279.785156 23.496094 278.746094 22.15625 277.550781 C 18.109375 273.957031 17.070312 267.890625 22.320312 263.394531 C 24.828125 261.242188 27.632812 259.644531 30.667969 258.398438 C 36.25 256.105469 42.136719 254.988281 48.066406 254.253906 C 70.382812 251.507812 93.246094 253.742188 115.585938 255.46875 C 125.285156 256.222656 134.980469 257.109375 144.65625 258.136719 C 154.078125 259.136719 163.320312 259.15625 172.785156 259.15625 C 179.480469 258.691406 186.167969 258.050781 192.609375 256.070312 C 195.535156 255.171875 198.421875 253.996094 201.097656 252.527344 C 202.953125 251.507812 204.632812 249.957031 205.996094 248.320312 C 208.691406 245.085938 208.28125 241.863281 204.886719 239.472656 C 203.144531 238.238281 201.113281 237.332031 199.097656 236.574219 C 193.792969 234.570312 188.199219 233.898438 182.589844 233.511719 C 171.695312 232.769531 160.84375 233.632812 150.046875 234.976562 C 139.621094 236.269531 129.253906 237.996094 118.847656 239.457031 C 115.082031 239.984375 111.292969 240.402344 107.5 240.679688 C 91.949219 241.8125 76.375 242.367188 60.78125 242.121094 C 55.132812 242.03125 49.625 240.964844 44.296875 239.015625 C 41.535156 238.011719 39.003906 236.621094 36.851562 234.636719 C 32.164062 230.320312 31.746094 225.214844 35.542969 220.125 C 37.53125 217.460938 40.164062 215.542969 42.941406 213.820312 C 50.777344 208.972656 59.386719 206.425781 68.460938 205.097656 C 90.300781 201.90625 112.878906 207.335938 134.601562 209.402344 C 151.375 210.996094 170.605469 212.246094 186.226562 204.753906 C 188.746094 203.546875 191.296875 201.992188 192.558594 199.503906 C 195.253906 194.179688 189.253906 190.402344 185.070312 188.742188 C 180.117188 186.773438 174.921875 186.058594 169.664062 185.71875 C 159.3125 185.042969 149.007812 185.777344 138.765625 187.238281 C 129.257812 188.589844 119.804688 190.304688 110.296875 191.609375 C 99.152344 193.136719 87.941406 193.972656 76.6875 193.226562 C 73.808594 193.039062 70.925781 192.542969 68.109375 191.914062 C 65.429688 191.320312 62.992188 190.066406 61.101562 187.980469 C 58.523438 185.140625 58.308594 181.679688 60.566406 178.5625 C 62.515625 175.863281 65.160156 173.976562 68.058594 172.40625 C 74.484375 168.933594 81.316406 166.597656 88.433594 165.03125 C 100.039062 162.488281 111.804688 162.378906 123.597656 162.851562 C 129.570312 163.089844 135.539062 163.4375 141.511719 163.558594 C 146.058594 163.648438 150.550781 162.988281 154.917969 161.667969 C 158.457031 160.601562 161.625 158.851562 163.949219 155.921875 C 164.945312 154.671875 165.765625 153.214844 166.347656 151.726562 C 167.21875 149.496094 166.707031 147.292969 164.839844 145.824219 C 163.019531 144.386719 160.980469 143.117188 158.855469 142.183594 C 153.953125 140.03125 148.699219 139.402344 143.414062 139.78125 C 138.914062 140.105469 134.433594 140.839844 129.976562 141.609375 C 124.449219 142.570312 118.992188 143.957031 113.453125 144.808594 C 94.355469 147.730469 79.203125 129.445312 80.714844 111.28125 C 81.484375 102.035156 86.460938 93.21875 93.992188 87.773438 C 99.65625 83.671875 106.5 81.503906 112.414062 77.769531 C 118.855469 73.699219 123.625 68.003906 128.300781 62.097656 C 139.398438 48.074219 150.578125 32.761719 156.777344 15.855469 C 157.277344 14.476562 157.777344 13.027344 158.84375 12.019531 C 159.554688 11.347656 161.613281 10.421875 162.492188 11.371094 C 163.222656 12.15625 161.722656 14.558594 161.359375 15.445312 C 159.949219 18.914062 158.414062 22.332031 156.746094 25.6875 C 151.859375 35.535156 145.78125 44.695312 139.21875 53.496094 C 135.824219 58.042969 132.292969 62.488281 128.703125 66.875 C 127.371094 68.503906 119.484375 80.105469 117.800781 79.910156 C 128.347656 81.117188 137.875 88.800781 141.265625 98.84375 C 144.65625 108.882812 141.734375 120.761719 134.066406 128.089844 C 128.546875 133.371094 120.503906 136.261719 113.042969 134.617188 C 103.578125 132.527344 96.667969 123.375 95.53125 113.769531 C 94.394531 104.164062 98.289062 94.457031 104.371094 86.925781 C 103.710938 87.742188 100.496094 88.347656 99.441406 88.90625 C 97.789062 89.773438 96.238281 90.824219 94.8125 92.019531 C 91.9375 94.441406 89.671875 97.535156 87.792969 100.761719 C 83.859375 107.515625 83.015625 114.691406 85.386719 122.199219 C 87.058594 127.492188 89.886719 132.042969 93.910156 135.867188 C 98.835938 140.546875 104.832031 142.3125 111.398438 141.539062 C 117.136719 140.863281 122.839844 139.679688 128.476562 138.390625 C 133.804688 137.171875 139.1875 136.277344 144.601562 136.191406 C 150.964844 136.09375 157.238281 137.007812 162.980469 140.179688 C 172.710938 145.546875 170.796875 153.140625 166.257812 158.640625 C 163.5 161.988281 159.804688 163.855469 155.714844 164.984375 C 143.21875 168.425781 130.574219 166.246094 117.878906 165.835938 C 105.132812 165.425781 92.492188 166.234375 80.320312 170.445312 C 76.570312 171.742188 72.867188 173.300781 69.382812 175.1875 C 67.046875 176.449219 64.941406 178.316406 63.078125 180.242188 C 61.003906 182.390625 61.203125 184.4375 63.679688 186.214844 C 65.398438 187.441406 67.472656 188.320312 69.515625 188.910156 C 74.625 190.378906 79.914062 190.1875 85.171875 190.152344 C 107.601562 190.003906 129.367188 184.089844 151.664062 182.285156 C 161.65625 181.476562 171.382812 181.242188 181.230469 183.460938 C 185.351562 184.367188 189.121094 186.058594 192.488281 188.648438 C 199.238281 193.84375 197.132812 201.941406 192.632812 205.523438 C 190.679688 207.082031 188.40625 208.339844 186.113281 209.355469 C 179.917969 212.105469 173.304688 213.265625 166.589844 213.761719 C 153.34375 214.742188 140.152344 214.03125 126.988281 212.386719 C 114.046875 210.777344 101.105469 209.101562 88.128906 207.832031 C 77.957031 206.835938 67.847656 207.730469 57.992188 210.617188 C 52.03125 212.363281 46.417969 214.90625 41.5625 218.8125 C 39.757812 220.261719 38.1875 222.085938 36.8125 223.957031 C 35.382812 225.910156 35.691406 228.074219 37.039062 230.042969 C 41.445312 236.476562 50.945312 237.601562 58.039062 238.292969 C 67.25 239.183594 76.519531 238.859375 85.746094 238.40625 C 96.925781 237.863281 108.105469 237.128906 119.226562 235.824219 C 130.351562 234.515625 141.300781 232.367188 152.429688 231.132812 C 157.777344 230.539062 163.132812 230.0625 168.503906 229.734375 C 177.441406 229.183594 186.234375 229.675781 195.003906 231.25 C 198.40625 231.859375 201.691406 232.933594 204.691406 234.679688 C 206.089844 235.492188 207.484375 236.410156 208.640625 237.53125 C 211.519531 240.308594 212.253906 243.644531 210.871094 247.460938 C 209.433594 251.410156 206.652344 254.152344 203.125 256.222656 C 199.496094 258.359375 195.5 259.539062 191.441406 260.53125 C 180.769531 263.148438 170.160156 263.167969 159.257812 262.648438 C 148.019531 262.117188 136.820312 261.0625 125.632812 259.949219 C 103.332031 257.734375 80.941406 255.25 58.496094 256.199219 C 52.21875 256.46875 46.03125 256.914062 39.910156 258.394531 C 36.582031 259.199219 33.320312 260.34375 30.113281 261.5625 C 27.382812 262.605469 25.019531 264.324219 23.050781 266.511719 C 20.699219 269.121094 20.652344 271.589844 22.894531 274.25 C 24.453125 276.097656 26.46875 277.28125 28.699219 278.148438 C 33.300781 279.9375 38.082031 281.03125 42.992188 281.1875 C 50.234375 281.421875 57.496094 281.640625 64.734375 281.382812 C 78.671875 280.890625 92.589844 279.8125 106.53125 279.453125 C 117.390625 279.175781 128.269531 279.550781 139.140625 279.734375 C 154.539062 279.992188 169.878906 281.816406 185.300781 281.523438 C 188.742188 281.457031 192.183594 281.347656 195.628906 281.257812 C 196.535156 281.234375 197.441406 281.152344 198.34375 281.199219 C 199.507812 281.257812 200.464844 282.234375 200.277344 283.34375 C 199.984375 285.113281 199.582031 286.882812 199.066406 288.601562 C 195.894531 299.144531 191.617188 309.308594 187.304688 319.425781 C 183.015625 329.488281 179.132812 339.652344 175.660156 350.03125 C 173.832031 355.476562 172.109375 360.953125 170.476562 366.457031 C 170.078125 367.789062 170.078125 369.355469 168.265625 369.917969 C 166.324219 368.734375 166 366.816406 166.054688 364.78125 C 166.160156 360.808594 166.125 356.8125 166.519531 352.863281 C 167.199219 346.03125 168.167969 339.222656 168.996094 332.402344 C 169.0625 331.878906 169.007812 331.339844 169.007812 329.59375 C 166.574219 335.175781 165.855469 340.042969 164.480469 344.699219 C 163.046875 349.558594 161.75 354.457031 160.191406 359.273438 C 158.65625 364.019531 158.328125 369.121094 156.351562 373.609375 C 154.539062 373.734375 153.988281 372.765625 153.90625 371.683594 C 153.648438 368.269531 153.199219 364.820312 153.425781 361.429688 C 154.148438 350.789062 155.160156 340.167969 156.019531 329.539062 C 156.136719 328.113281 156.035156 326.667969 156.035156 324.785156 C 155.511719 325.300781 155.078125 325.527344 154.992188 325.84375 C 151.855469 337.722656 147.773438 349.363281 145.863281 361.558594 C 145.367188 364.746094 145.605469 368.808594 143.972656 371.683594 C 143.867188 371.863281 143.75 372.042969 143.59375 372.175781 C 143.140625 372.5625 142.417969 372.492188 141.9375 372.136719 C 140.535156 371.097656 140.4375 368.773438 140.253906 367.203125 C 139.621094 361.917969 139.832031 356.628906 139.777344 351.320312 C 139.71875 346.035156 139.6875 340.75 139.648438 335.464844 C 139.609375 330.234375 139.640625 325 139.640625 319.738281 C 138.296875 319.828125 138.140625 320.855469 137.929688 321.644531 C 134.804688 333.535156 131.652344 345.421875 128.667969 357.347656 C 127.363281 362.5625 127.433594 368.28125 125.632812 373.347656 C 125.46875 373.804688 125.253906 374.285156 124.832031 374.527344 C 124.332031 374.8125 123.660156 374.65625 123.226562 374.273438 C 122.792969 373.890625 122.5625 373.324219 122.433594 372.757812 C 121.53125 368.789062 120.796875 364.683594 120.363281 360.632812 C 118.84375 346.417969 118.148438 332.148438 118.167969 317.851562 C 118.167969 315.507812 118.167969 313.167969 118.167969 310.40625 C 116.449219 311.960938 117.144531 313.59375 116.796875 314.96875 C 116.441406 316.363281 116.242188 317.808594 116.09375 319.246094 C 114.90625 330.582031 113.78125 341.917969 112.570312 353.246094 C 111.910156 359.394531 111.382812 365.664062 110.363281 371.757812 C 110.167969 372.957031 109.585938 374.214844 108.464844 374.695312 C 108.390625 374.722656 108.3125 374.75 108.238281 374.734375 C 108.152344 374.710938 108.09375 374.636719 108.042969 374.570312 C 105.925781 371.742188 105.511719 368.117188 105.058594 364.730469 C 103.5 353.117188 102.015625 341.492188 100.503906 329.875 C 100.113281 326.863281 99.691406 323.855469 98.714844 320.867188 C 98.609375 322.015625 98.445312 323.164062 98.40625 324.3125 C 98.027344 334.433594 97.734375 344.558594 97.285156 354.671875 C 97.089844 359.1875 96.621094 363.6875 96.238281 368.191406 C 96.101562 369.785156 96.011719 371.421875 94.566406 372.457031 C 93.046875 372.574219 92.535156 371.449219 92.253906 370.480469 C 91.339844 367.359375 90.410156 364.226562 89.855469 361.027344 C 88.28125 351.941406 86.960938 342.8125 85.40625 333.722656 C 84.4375 328.046875 83.753906 322.304688 81.976562 316.5625 C 80.808594 317.164062 81.203125 318.109375 81.171875 318.804688 C 80.671875 330.183594 80.183594 341.566406 79.746094 352.949219 C 79.613281 356.375 79.515625 359.796875 79.414062 363.222656 C 79.359375 365.160156 79.4375 367.101562 79.367188 369.039062 C 79.304688 370.566406 79.34375 372.691406 78.507812 374.035156 C 78.355469 374.285156 78.140625 374.519531 77.859375 374.597656 C 77.550781 374.679688 77.214844 374.558594 76.972656 374.347656 C 76.726562 374.140625 76.558594 373.863281 76.402344 373.585938 C 75.003906 371.105469 74.3125 368.421875 73.554688 365.699219 C 72.726562 362.742188 71.949219 359.761719 71.378906 356.742188 C 69.050781 344.484375 66.960938 332.183594 64.738281 319.90625 C 64.035156 316.007812 63.222656 312.125 61.859375 308.269531 C 61.800781 309.304688 61.597656 310.351562 61.707031 311.367188 C 63.257812 325.570312 64.855469 339.765625 66.441406 353.964844 C 66.902344 358.097656 67.398438 362.230469 67.789062 366.375 C 67.941406 367.984375 67.984375 369.632812 67.835938 371.25 C 67.765625 372.046875 67.339844 373.238281 66.757812 373.472656 C 65.460938 373.992188 64.902344 372.726562 64.484375 371.769531 C 63.039062 368.453125 61.496094 365.171875 60.308594 361.765625 C 58.414062 356.304688 56.753906 350.757812 55.050781 345.226562 C 54.738281 344.21875 54.488281 341.578125 52.929688 340.390625 C 53.0625 341.660156 55.84375 356.808594 56.882812 363.402344 " fill-opacity="1" fill-rule="nonzero"/></g></svg>